Coordinates
version=1
nRows=26
nColumns=22
inDegrees=yes

Units are S.I. units (second, meters, Newtons, ...)
If the header above contains a line with 'inDegrees', this indicates whether rotational values are in degrees (yes) or radians (no).

endheader
time	pelvis_tilt	pelvis_list	pelvis_rotation	pelvis_tx	pelvis_ty	pelvis_tz	hip_flexion_r	hip_adduction_r	hip_rotation_r	knee_angle_r	ankle_angle_r	subtalar_angle_r	hip_flexion_l	hip_adduction_l	hip_rotation_l	knee_angle_l	ankle_angle_l	subtalar_angle_l	lumbar_extension	lumbar_bending	lumbar_rotation
      2.85000000	      0.32358314	     -9.75503065	     11.50222235	      0.10497914	      0.96183224	     -0.27953326	     13.28342484	     11.71078314	     -6.00376329	    -25.01949640	     10.81307839	     -0.35748410	     16.79212315	    -11.62113908	      9.40332360	    -60.06518250	      8.72647481	     -1.58271646	     -0.80308629	      8.79208804	     -7.79594086
      2.86000000	      0.35273901	     -9.68469453	     11.21581632	      0.11320363	      0.96246568	     -0.27878873	     12.35156279	     11.87874655	     -5.62367065	    -24.46849186	     11.04956926	     -0.44090346	     17.70988559	    -11.50562420	      9.03672801	    -59.23180187	      9.41895458	     -1.56432673	     -0.90154938	      8.67779279	     -7.35555236
      2.87000000	      0.38153646	     -9.59757177	     10.92686039	      0.12137378	      0.96305515	     -0.27813194	     11.41007955	     12.01183686	     -5.23708948	    -23.90700719	     11.27730671	     -0.51191735	     18.57028262	    -11.35414430	      8.69507373	    -58.23189436	     10.05865486	     -1.40515666	     -1.00374709	      8.55025134	     -6.93364571
      2.88000000	      0.37693845	     -9.51815144	     10.62916970	      0.12946380	      0.96351744	     -0.27752792	     10.52117361	     12.12647163	     -4.86738395	    -23.36847946	     11.51693051	     -0.56075461	     19.42359135	    -11.19660885	      8.37390098	    -57.09712433	     10.66625186	     -1.22471094	     -1.07156887	      8.42805247	     -6.53707064
      2.89000000	      0.39040588	     -9.42136186	     10.34466576	      0.13749439	      0.96395119	     -0.27702794	      9.60062188	     12.21246335	     -4.47181489	    -22.80710013	     11.73472340	     -0.60158644	     20.21119803	    -11.00985065	      8.08722448	    -55.84297925	     11.16318846	     -0.96845846	     -1.16423250	      8.29527390	     -6.14379294
      2.90000000	      0.38620089	     -9.33513269	     10.06008630	      0.14545985	      0.96426201	     -0.27656858	      8.71683262	     12.29167723	     -4.08138423	    -22.26736139	     11.95687696	     -0.63346255	     20.98666904	    -10.83940961	      7.80509426	    -54.49993431	     11.59602445	     -0.74198591	     -1.23935283	      8.17038502	     -5.78628893
      2.91000000	      0.37467638	     -9.25511622	      9.77713732	      0.15337104	      0.96446360	     -0.27617271	      7.85436010	     12.36201474	     -3.68712212	    -21.74419786	     12.18000881	     -0.65990793	     21.73967601	    -10.68317547	      7.52182567	    -53.08711352	     11.94456885	     -0.56279453	     -1.30754184	      8.05446590	     -5.43897761
      2.92000000	      0.35470971	     -9.18345365	      9.48969698	      0.16123157	      0.96454274	     -0.27581827	      7.02191519	     12.42685932	     -3.29050721	    -21.25114650	     12.40877308	     -0.68315111	     22.47400071	    -10.54990966	      7.22389602	    -51.62353565	     12.21385659	     -0.45190980	     -1.36898934	      7.94757077	     -5.10174628
      2.93000000	      0.32694707	     -9.11789084	      9.19171523	      0.16904886	      0.96449763	     -0.27549507	      6.22210224	     12.48465789	     -2.89040876	    -20.79694525	     12.64540335	     -0.70313145	     23.18759660	    -10.43938627	      6.90241347	    -50.12302008	     12.40192248	     -0.41195586	     -1.42577651	      7.84623160	     -4.77263876
      2.94000000	      0.29031021	     -9.05571810	      8.88124136	      0.17682987	      0.96432848	     -0.27521100	      5.45630300	     12.53128774	     -2.49260516	    -20.38510665	     12.89142443	     -0.71842110	     23.88107587	    -10.34663423	      6.55475093	    -48.59609794	     12.49842632	     -0.43139014	     -1.47700931	      7.74920037	     -4.44745457
      2.95000000	      0.24986989	     -8.99201476	      8.56524737	      0.18457105	      0.96404724	     -0.27499083	      4.72045268	     12.56096098	     -2.09703031	    -20.01839191	     13.14901589	     -0.72712817	     24.54416864	    -10.25531240	      6.20163517	    -47.04366401	     12.49242739	     -0.49407793	     -1.52914188	      7.65440857	     -4.13244715
      2.96000000	      0.19714389	     -8.92828213	      8.24272749	      0.19227270	      0.96364844	     -0.27483339	      4.02340028	     12.57404275	     -1.71029990	    -19.69550811	     13.41693816	     -0.73022260	     25.18568126	    -10.16140897	      5.84971028	    -45.46957892	     12.36205224	     -0.57132744	     -1.57248741	      7.56152533	     -3.83024915
      2.97000000	      0.14148397	     -8.85934628	      7.91810158	      0.19994063	      0.96315532	     -0.27475771	      3.35292389	     12.56587123	     -1.32772553	    -19.41383207	     13.69730303	     -0.72740696	     25.78456071	    -10.05157257	      5.51968049	    -43.86303917	     12.10163294	     -0.64890165	     -1.61798568	      7.46825303	     -3.54180056
      2.98000000	      0.07490120	     -8.78866700	      7.59466483	      0.20757392	      0.96256609	     -0.27476009	      2.71458328	     12.54019452	     -0.95387396	    -19.16490210	     13.98444067	     -0.72254318	     26.34719696	     -9.92290322	      5.22821034	    -42.21965425	     11.69863616	     -0.70149267	     -1.65599025	      7.37611096	     -3.27382301
      2.99000000	      0.00580402	     -8.71336966	      7.27344054	      0.21518246	      0.96189956	     -0.27485615	      2.09658291	     12.49382033	     -0.58262881	    -18.94613781	     14.27826197	     -0.71648610	     26.85556703	     -9.77192734	      4.98429371	    -40.52991595	     11.16707139	     -0.73074194	     -1.69521416	      7.28452219	     -3.02198805
      3.00000000	     -0.06921056	     -8.63912806	      6.96087077	      0.22276581	      0.96115849	     -0.27503346	      1.49789061	     12.43622787	     -0.21290951	    -18.74515543	     14.57607572	     -0.71175691	     27.31243978	     -9.59971895	      4.81261123	    -38.79062060	     10.51904213	     -0.73597924	     -1.73070721	      7.19752663	     -2.79617926
      3.01000000	     -0.16271611	     -8.57109430	      6.65802526	      0.23033941	      0.96033320	     -0.27529105	      0.93120520	     12.36977518	      0.13396867	    -18.55955763	     14.85724458	     -0.71325003	     27.73313844	     -9.41446410	      4.70980018	    -37.00418157	      9.77626451	     -0.70943984	     -1.74431278	      7.11832474	     -2.59388993
      3.02000000	     -0.26094529	     -8.50508657	      6.36075675	      0.23791004	      0.95944920	     -0.27562548	      0.37779180	     12.29403157	      0.47995386	    -18.38688393	     15.13494346	     -0.71373979	     28.09366970	     -9.21641343	      4.68388183	    -35.16428873	      8.99361732	     -0.68108430	     -1.75303511	      7.04418050	     -2.41373445
      3.03000000	     -0.36968058	     -8.44493190	      6.07100995	      0.24549461	      0.95850304	     -0.27602215	     -0.16026727	     12.21370708	      0.81335105	    -18.21972625	     15.40088186	     -0.70609523	     28.40271477	     -9.01379558	      4.73391978	    -33.27828913	      8.21883556	     -0.66490497	     -1.74714374	      6.97636800	     -2.26157077
      3.04000000	     -0.49825348	     -8.39291632	      5.78812006	      0.25308942	      0.95748462	     -0.27649994	     -0.66767078	     12.12789974	      1.12495589	    -18.06703769	     15.65001393	     -0.69042233	     28.67033472	     -8.80568970	      4.88054985	    -31.35127669	      7.50725070	     -0.65167541	     -1.71571855	      6.91983048	     -2.12023694
      3.05000000	     -0.63378590	     -8.34648697	      5.50779667	      0.26072133	      0.95641544	     -0.27702264	     -1.16353517	     12.03942957	      1.42728558	    -17.92446648	     15.89551778	     -0.65324794	     28.87873496	     -8.60283116	      5.11128280	    -29.38792362	      6.92021562	     -0.65623174	     -1.67277357	      6.86754638	     -2.00033316
      3.06000000	     -0.78341635	     -8.30656638	      5.22932782	      0.26840134	      0.95529347	     -0.27759378	     -1.63919257	     11.94824804	      1.71657574	    -17.79385113	     16.13478857	     -0.58715235	     29.03631698	     -8.40860663	      5.43401987	    -27.39902737	      6.49260091	     -0.65703050	     -1.60871076	      6.82213821	     -1.89486931
      3.07000000	     -0.94464053	     -8.27388224	      4.94733289	      0.27613652	      0.95412283	     -0.27818982	     -2.09226183	     11.85623228	      1.99438990	    -17.68507176	     16.37105224	     -0.48226053	     29.14106992	     -8.23205139	      5.85119179	    -25.39803813	      6.24965540	     -0.62851752	     -1.52742678	      6.78051365	     -1.79249897
      3.08000000	     -1.11851639	     -8.24421598	      4.65860881	      0.28392275	      0.95291409	     -0.27881639	     -2.51023107	     11.75917846	      2.26641096	    -17.61880470	     16.59349734	     -0.34708582	     29.19458926	     -8.07594672	      6.35450322	    -23.39992848	      6.16684705	     -0.54045674	     -1.43007370	      6.74169009	     -1.70995101
      3.09000000	     -1.29972808	     -8.22521443	      4.36254195	      0.29178493	      0.95167541	     -0.27945414	     -2.90721400	     11.66810156	      2.54384736	    -17.58072395	     16.80711584	     -0.17276884	     29.20113389	     -7.95573246	      6.94073064	    -21.43699134	      6.22972852	     -0.40039852	     -1.31928508	      6.71176038	     -1.62922720
      3.10000000	     -1.47323293	     -8.21411444	      4.05654971	      0.29975823	      0.95043109	     -0.28010497	     -3.30582029	     11.57814347	      2.82729619	    -17.56359914	     17.02435673	      0.08846474	     29.15402706	     -7.87677039	      7.58281303	    -19.54955689	      6.41105741	     -0.20982200	     -1.21037130	      6.68801687	     -1.52099887
